<svg width="288" height="84" viewBox="0 0 288 84" fill="none" xmlns="http://www.w3.org/2000/svg">
<g filter="url(#filter0_d_102_3)">
<path d="M55.776 76.328C55.392 76.328 55.3067 76.0293 55.52 75.432C55.776 74.8773 56.0107 74.3653 56.224 73.896C56.608 73.128 56.8 71.9333 56.8 70.312C56.8 68.904 56.544 67.3893 56.032 65.768C55.52 64.1467 54.5173 62.6747 53.024 61.352C50.976 59.4747 48.672 57.9813 46.112 56.872C43.552 55.7627 40.864 54.8667 38.048 54.184C35.2747 53.5013 32.5227 52.904 29.792 52.392C28.128 54.696 26.336 56.7653 24.416 58.6C22.5387 60.4347 20.5333 61.8427 18.4 62.824C17.2053 63.3787 16.0533 63.784 14.944 64.04C13.8347 64.3387 12.7893 64.488 11.808 64.488C9.41867 64.488 7.456 63.848 5.92 62.568C4.42667 61.3307 3.68 59.8587 3.68 58.152C3.68 56.5307 4.40533 54.952 5.856 53.416C7.34933 51.8373 9.80267 50.536 13.216 49.512C14.5813 49.128 16.096 48.8507 17.76 48.68C19.424 48.4667 21.152 48.36 22.944 48.36C24.0533 48.36 25.1413 48.4027 26.208 48.488C27.3173 48.5307 28.3413 48.6587 29.28 48.872C30.5173 46.9947 31.6693 45.0533 32.736 43.048C33.8027 41 34.912 38.7813 36.064 36.392C32.6933 36.4773 29.7707 35.9867 27.296 34.92C24.8213 33.8107 22.9013 32.3387 21.536 30.504C20.2133 28.6693 19.552 26.7067 19.552 24.616C19.552 22.9093 20.0427 21.2453 21.024 19.624C22.0053 17.96 23.5413 16.4667 25.632 15.144C27.7653 13.7787 30.4747 12.712 33.76 11.944C33.9733 11.8587 34.1653 11.816 34.336 11.816C34.5493 11.816 34.7413 11.816 34.912 11.816C35.552 11.816 35.872 11.944 35.872 12.2C35.872 12.6267 35.1893 12.9253 33.824 13.096C31.6053 13.352 29.6427 14.1413 27.936 15.464C26.272 16.7867 24.9707 18.3653 24.032 20.2C23.136 22.0347 22.688 23.8907 22.688 25.768C22.688 27.3893 23.072 28.904 23.84 30.312C24.608 31.72 25.824 32.872 27.488 33.768C29.152 34.6213 31.3067 35.048 33.952 35.048C34.8907 35.048 35.8933 34.984 36.96 34.856C37.1307 34.5147 37.408 33.832 37.792 32.808C38.2187 31.7413 38.688 30.5467 39.2 29.224C39.712 27.9013 40.2027 26.6213 40.672 25.384C41.184 24.1467 41.5893 23.1227 41.888 22.312C42.2293 21.4587 42.4 21.032 42.4 21.032C44.3627 16.1253 46.368 12.2853 48.416 9.512C50.5067 6.696 52.512 4.712 54.432 3.56C56.3947 2.408 58.144 1.832 59.68 1.832C61.344 1.832 62.7093 2.32266 63.776 3.304C64.8853 4.28533 65.4827 5.39466 65.568 6.632C65.6107 7.016 65.632 7.29333 65.632 7.464C65.632 7.63466 65.632 7.848 65.632 8.104C65.632 10.6213 65.12 13.1387 64.096 15.656C63.1147 18.1733 61.728 20.5627 59.936 22.824C58.1867 25.0853 56.16 27.1333 53.856 28.968C51.5947 30.8027 49.1627 32.3387 46.56 33.576C44 34.8133 41.3973 35.6667 38.752 36.136C38.112 37.416 37.536 38.568 37.024 39.592C36.5547 40.5733 36.0213 41.64 35.424 42.792C34.8267 43.944 34.0373 45.416 33.056 47.208C32.7573 47.7627 32.5227 48.168 32.352 48.424C32.224 48.6373 32.0107 48.9787 31.712 49.448C33.8453 49.96 36.1707 50.6853 38.688 51.624C41.2053 52.52 43.68 53.608 46.112 54.888C48.5867 56.1253 50.784 57.4907 52.704 58.984C55.0933 60.8187 56.7787 62.888 57.76 65.192C58.784 67.496 59.296 69.5227 59.296 71.272C59.296 72.5093 59.104 73.448 58.72 74.088C58.1653 75.0267 57.6107 75.624 57.056 75.88C56.5013 76.1787 56.0747 76.328 55.776 76.328ZM39.648 34.408C42.5493 33.768 45.3867 32.616 48.16 30.952C50.9333 29.2453 53.4293 27.1973 55.648 24.808C57.8667 22.376 59.6373 19.752 60.96 16.936C62.2827 14.0773 62.944 11.176 62.944 8.232C62.944 7.50666 62.752 6.90933 62.368 6.44C61.984 5.97066 61.4293 5.736 60.704 5.736C59.7227 5.736 58.464 6.29066 56.928 7.4C55.392 8.46666 53.6427 10.28 51.68 12.84C49.7173 15.3573 47.6053 18.8347 45.344 23.272C45.344 23.272 45.0453 23.8267 44.448 24.936C43.8933 26.0453 43.168 27.4533 42.272 29.16C41.4187 30.824 40.544 32.5733 39.648 34.408ZM10.912 62.632C11.8507 62.632 12.8533 62.504 13.92 62.248C15.0293 61.992 16.1813 61.5867 17.376 61.032C20.96 59.2827 24.2667 56.2533 27.296 51.944C26.3147 51.7307 25.2907 51.5813 24.224 51.496C23.1573 51.368 22.0693 51.304 20.96 51.304C19.808 51.304 18.6133 51.368 17.376 51.496C16.1813 51.624 15.008 51.8587 13.856 52.2C10.9973 52.968 8.8 53.9493 7.264 55.144C5.77067 56.3387 5.024 57.5547 5.024 58.792C5.024 59.8587 5.55733 60.7547 6.624 61.48C7.69067 62.248 9.12 62.632 10.912 62.632ZM60.1805 57.256C58.6018 57.256 57.1725 56.744 55.8925 55.72C54.6552 54.696 54.0365 53.1387 54.0365 51.048C54.0365 49.128 54.5058 47.08 55.4445 44.904C56.3832 42.6853 57.5778 40.744 59.0285 39.08C60.2658 37.6293 61.6525 36.4347 63.1885 35.496C64.7245 34.5573 66.1752 34.088 67.5405 34.088C68.4792 34.088 69.2898 34.344 69.9725 34.856C70.6978 35.4107 71.0605 36.2 71.0605 37.224C71.0605 38.2907 70.6552 39.464 69.8445 40.744C69.0338 42.024 67.8818 43.2187 66.3885 44.328C65.7485 44.7973 64.9378 45.2453 63.9565 45.672C62.9752 46.0987 61.9938 46.4613 61.0125 46.76C60.0312 47.016 59.2205 47.144 58.5805 47.144C58.3672 47.656 58.1538 48.3387 57.9405 49.192C57.7698 50.0453 57.6845 50.92 57.6845 51.816C57.6845 52.8827 57.8978 53.8427 58.3245 54.696C58.7512 55.5493 59.5405 55.976 60.6925 55.976C62.1005 55.976 63.3805 55.5707 64.5325 54.76C65.6845 53.9493 66.7085 52.9467 67.6045 51.752C68.5005 50.5147 69.2472 49.2773 69.8445 48.04C70.4845 46.8027 70.9965 45.7573 71.3805 44.904C71.6365 44.3067 71.9778 44.008 72.4045 44.008C72.6178 44.008 72.7245 44.1147 72.7245 44.328C72.7245 44.4987 72.6605 44.712 72.5325 44.968C71.9352 46.248 71.2952 47.6133 70.6125 49.064C69.9298 50.472 69.1192 51.816 68.1805 53.096C67.2418 54.3333 66.1112 55.336 64.7885 56.104C63.5085 56.872 61.9725 57.256 60.1805 57.256ZM59.0285 45.992C59.6258 45.992 60.6285 45.7787 62.0365 45.352C63.4445 44.8827 64.7245 44.1573 65.8765 43.176C66.9858 42.1947 67.8392 41.128 68.4365 39.976C69.0338 38.7813 69.3325 37.7787 69.3325 36.968C69.3325 36.0293 68.9912 35.56 68.3085 35.56C67.7965 35.56 67.0925 35.9013 66.1965 36.584C65.3005 37.2667 64.1912 38.4187 62.8685 40.04C62.0578 41.064 61.2898 42.1733 60.5645 43.368C59.8392 44.5627 59.3272 45.4373 59.0285 45.992ZM87.5755 57.192C87.1062 57.2347 86.5728 57.128 85.9755 56.872C85.3782 56.616 84.8448 56.1467 84.3755 55.464C83.9488 54.7813 83.7355 53.8213 83.7355 52.584C83.7355 51.56 83.9275 50.3227 84.3115 48.872C83.7995 49.6827 83.1382 50.6853 82.3275 51.88C81.5168 53.032 80.6422 54.056 79.7035 54.952C78.8928 55.72 78.1248 56.2747 77.3995 56.616C76.6742 56.9573 76.0128 57.128 75.4155 57.128C74.3062 57.128 73.4102 56.6373 72.7275 55.656C72.0448 54.632 71.7035 53.3093 71.7035 51.688C71.7035 49.9813 72.1302 48.04 72.9835 45.864C73.8368 43.688 75.2235 41.4267 77.1435 39.08C78.3808 37.5867 79.8742 36.392 81.6235 35.496C83.4155 34.5573 85.1648 34.088 86.8715 34.088C87.8528 34.088 88.7915 34.2587 89.6875 34.6C90.5835 34.8987 91.3728 35.4107 92.0555 36.136C92.3542 36.4347 92.5035 36.776 92.5035 37.16C92.5035 37.416 92.3968 37.6293 92.1835 37.8C91.9702 37.9707 91.6928 38.0133 91.3515 37.928C90.8822 36.4347 89.8795 35.688 88.3435 35.688C87.6182 35.688 86.7862 35.9227 85.8475 36.392C84.3968 37.16 82.8822 38.4187 81.3035 40.168C79.7675 41.9173 78.4235 43.7307 77.2715 45.608C77.1008 45.864 76.8235 46.3547 76.4395 47.08C76.0982 47.8053 75.7568 48.616 75.4155 49.512C75.0742 50.408 74.8395 51.2827 74.7115 52.136C74.6688 52.392 74.6475 52.584 74.6475 52.712C74.6475 52.7973 74.6475 52.9467 74.6475 53.16C74.6475 54.568 75.1808 55.272 76.2475 55.272C77.5275 55.272 78.9782 54.3333 80.5995 52.456C81.7088 51.0907 82.7115 49.6613 83.6075 48.168C84.5035 46.6747 85.4208 45.0747 86.3595 43.368C86.9995 42.216 87.5968 41.256 88.1515 40.488C88.7062 39.72 89.4955 39.336 90.5195 39.336C90.9888 39.336 91.4582 39.4 91.9275 39.528C92.3968 39.656 92.8875 39.6773 93.3995 39.592C93.0582 39.9333 92.5888 40.5733 91.9915 41.512C91.4368 42.4507 90.8395 43.5173 90.1995 44.712C89.5595 45.9067 88.9835 47.1227 88.4715 48.36C87.9595 49.5973 87.5968 50.664 87.3835 51.56C87.3408 51.816 87.2768 52.1787 87.1915 52.648C87.1488 53.1173 87.1275 53.4587 87.1275 53.672C87.1275 54.8667 87.4688 55.464 88.1515 55.464C88.8342 55.464 89.5595 55.0587 90.3275 54.248C91.1382 53.4373 91.9275 52.4347 92.6955 51.24C93.4635 50.0453 94.1675 48.8507 94.8075 47.656C95.4475 46.4187 95.9595 45.416 96.3435 44.648C96.5142 44.2213 96.7702 44.008 97.1115 44.008C97.3248 44.008 97.4315 44.1573 97.4315 44.456C97.4315 44.584 97.3675 44.8187 97.2395 45.16C96.7275 46.2267 96.1088 47.4427 95.3835 48.808C94.6582 50.1307 93.8688 51.432 93.0155 52.712C92.1622 53.9493 91.2662 54.9947 90.3275 55.848C89.4315 56.6587 88.5142 57.1067 87.5755 57.192ZM90.8755 79.464C89.9368 79.464 89.1262 79.2293 88.4435 78.76C87.7182 78.2907 87.3555 77.3733 87.3555 76.008C87.3555 73.8747 87.9955 70.9733 89.2755 67.304C90.5555 63.6347 92.1128 59.6027 93.9475 55.208C93.4355 54.3547 93.1795 53.4587 93.1795 52.52C93.1795 51.0267 93.6062 50.0027 94.4595 49.448C95.1848 48.8507 95.9528 48.616 96.7635 48.744C98.2995 45.288 99.8568 41.896 101.436 38.568C103.014 35.1973 104.529 32.0187 105.98 29.032C107.473 26.0453 108.817 23.4213 110.012 21.16C110.737 19.752 111.484 18.664 112.252 17.896C113.062 17.128 114.108 16.744 115.388 16.744C115.772 16.744 116.22 16.8293 116.732 17C117.286 17.128 117.777 17.1707 118.204 17.128C117.222 18.0667 115.985 19.6453 114.492 21.864C113.041 24.04 111.462 26.6427 109.756 29.672C108.049 32.7013 106.3 35.9867 104.508 39.528C102.758 43.0267 101.073 46.5893 99.4515 50.216C99.8355 50.728 100.22 51.4107 100.604 52.264C101.03 53.1173 101.329 54.0347 101.5 55.016C101.5 55.144 101.521 55.2933 101.564 55.464C101.606 55.592 101.649 55.72 101.692 55.848C102.673 55.8907 103.612 55.5493 104.508 54.824C105.446 54.0987 106.321 53.1387 107.132 51.944C107.985 50.7493 108.753 49.4907 109.436 48.168C110.161 46.8453 110.78 45.608 111.292 44.456C111.377 44.2853 111.484 44.1787 111.612 44.136C111.782 44.0507 111.91 44.008 111.996 44.008C112.166 44.008 112.294 44.0933 112.38 44.264C112.465 44.392 112.444 44.6053 112.316 44.904C111.718 46.2267 111.057 47.6133 110.332 49.064C109.606 50.472 108.796 51.7947 107.9 53.032C107.004 54.2267 106.044 55.208 105.02 55.976C103.996 56.7013 102.908 57.064 101.756 57.064C101.798 57.3627 101.82 57.6613 101.82 57.96C101.82 58.3013 101.82 58.6427 101.82 58.984C101.82 61.2027 101.542 63.5067 100.988 65.896C100.476 68.2853 99.7288 70.504 98.7475 72.552C97.7662 74.6 96.6142 76.264 95.2915 77.544C93.9688 78.824 92.4968 79.464 90.8755 79.464ZM99.9635 56.104H100.284C100.241 54.9947 100.049 54.0347 99.7075 53.224C99.4515 52.6267 99.1315 52.1147 98.7475 51.688C98.4915 52.2853 98.2568 52.84 98.0435 53.352C97.8728 53.8213 97.6595 54.3547 97.4035 54.952C97.7875 55.72 98.6408 56.104 99.9635 56.104ZM91.8355 77.736C92.2622 77.736 92.7742 77.48 93.3715 76.968C93.9688 76.4987 94.5448 75.88 95.0995 75.112C96.1662 73.704 97.1048 71.976 97.9155 69.928C98.7262 67.88 99.3662 65.7467 99.8355 63.528C100.305 61.3093 100.518 59.24 100.476 57.32C100.39 57.32 100.284 57.32 100.156 57.32C100.07 57.3627 99.9848 57.384 99.8995 57.384C99.3448 57.384 98.7688 57.2773 98.1715 57.064C97.5742 56.8507 97.0835 56.5947 96.6995 56.296C95.5902 59.1547 94.5662 61.9707 93.6275 64.744C92.6462 67.56 91.8995 70.0347 91.3875 72.168C91.2168 72.9787 91.0888 73.6827 91.0035 74.28C90.9182 74.8773 90.8755 75.3893 90.8755 75.816C90.8755 77.096 91.1955 77.736 91.8355 77.736ZM104.654 77.416C102.435 77.416 100.857 76.968 99.918 76.072C98.9793 75.2187 98.51 74.1947 98.51 73C98.51 72.36 98.5953 71.8053 98.766 71.336C98.9367 70.8667 99.1927 70.2693 99.534 69.544C100.131 68.3067 100.963 67.24 102.03 66.344C103.097 65.448 104.249 64.7227 105.486 64.168C107.705 63.144 110.222 62.312 113.038 61.672C115.897 61.032 118.627 60.328 121.23 59.56C122.041 58.152 122.787 56.552 123.47 54.76C124.153 52.9253 124.771 51.1547 125.326 49.448C125.881 47.6987 126.329 46.2693 126.67 45.16C126.158 46.0987 125.497 47.2507 124.686 48.616C123.918 49.9387 123.043 51.24 122.062 52.52C121.081 53.8 120.014 54.8667 118.862 55.72C117.753 56.5733 116.579 57 115.342 57C114.873 57 114.297 56.8933 113.614 56.68C112.974 56.4667 112.398 56.0827 111.886 55.528C111.417 54.9307 111.182 54.056 111.182 52.904C111.182 51.7947 111.438 50.728 111.95 49.704C112.505 48.6373 113.017 47.6133 113.486 46.632C113.358 46.632 113.209 46.5893 113.038 46.504C112.91 46.4187 112.846 46.2907 112.846 46.12C112.846 45.9493 112.889 45.7787 112.974 45.608C113.145 45.2667 113.337 44.904 113.55 44.52C113.763 44.136 113.955 43.7307 114.126 43.304C114.766 41.9813 115.406 40.7227 116.046 39.528C116.686 38.2907 117.241 37.2027 117.71 36.264C118.179 35.3253 118.99 34.856 120.142 34.856H124.11C123.811 35.112 123.427 35.4107 122.958 35.752C122.531 36.0507 122.126 36.52 121.742 37.16C120.59 39.1227 119.587 41.0213 118.734 42.856C117.881 44.648 116.963 46.568 115.982 48.616C115.513 49.5973 115.171 50.4933 114.958 51.304C114.745 52.1147 114.638 52.8187 114.638 53.416C114.638 54.824 115.107 55.528 116.046 55.528C117.07 55.528 118.307 54.696 119.758 53.032C120.953 51.624 122.147 49.96 123.342 48.04C124.579 46.0773 125.753 44.072 126.862 42.024C128.014 39.9333 129.017 38.0133 129.87 36.264C130.339 35.3253 131.171 34.856 132.366 34.856H135.886C134.649 35.7093 133.689 36.8187 133.006 38.184C132.366 39.5493 131.641 41.2987 130.83 43.432C129.934 45.7787 129.081 48.2107 128.27 50.728C127.502 53.2027 126.627 55.6987 125.646 58.216C127.054 57.7467 128.633 57.0213 130.382 56.04C132.174 55.0587 133.689 53.6507 134.926 51.816C135.907 50.3653 136.739 48.9787 137.422 47.656C138.147 46.2907 138.659 45.3093 138.958 44.712C139.129 44.2853 139.363 44.072 139.662 44.072C139.961 44.072 140.11 44.264 140.11 44.648C140.11 44.8613 140.046 45.096 139.918 45.352C138.809 47.5707 137.806 49.448 136.91 50.984C136.057 52.4773 135.097 53.7787 134.03 54.888C133.006 55.9547 131.747 56.8933 130.254 57.704C128.761 58.5573 126.862 59.4107 124.558 60.264C123.534 62.0987 122.361 63.9973 121.038 65.96C119.758 67.9653 118.286 69.8213 116.622 71.528C115.001 73.2773 113.187 74.6853 111.182 75.752C109.219 76.8613 107.043 77.416 104.654 77.416ZM103.118 76.136C104.526 76.136 105.977 75.7093 107.47 74.856C108.963 74.0027 110.414 72.9147 111.822 71.592C113.23 70.312 114.51 68.9893 115.662 67.624C116.857 66.3013 117.817 65.128 118.542 64.104C118.755 63.8053 118.99 63.4213 119.246 62.952C119.502 62.4827 119.758 62.0347 120.014 61.608C117.923 62.1627 115.619 62.76 113.102 63.4C110.627 64.0827 108.473 64.8293 106.638 65.64C104.59 66.4933 102.99 67.7093 101.838 69.288C100.643 70.8667 100.046 72.2747 100.046 73.512C100.046 74.28 100.302 74.8987 100.814 75.368C101.283 75.88 102.051 76.136 103.118 76.136Z" fill="#19FF83"/>
<path d="M167.544 36.5312C166.94 36.5104 166.304 36.4792 165.637 36.4375C164.992 36.375 164.221 36.3333 163.325 36.3125C161.367 36.2708 159.242 36.3542 156.95 36.5625C156.429 38.3542 155.565 40.5625 154.356 43.1875C153.169 45.7917 151.992 48 150.825 49.8125C148.325 53.6875 145.783 56.0833 143.2 57C142.825 57.1458 142.44 57.2188 142.044 57.2188C141.669 57.2188 141.325 57.1458 141.012 57C140.7 56.875 140.44 56.7083 140.231 56.5C139.794 56.1042 139.575 55.6667 139.575 55.1875C139.575 54.7083 139.731 54.3542 140.044 54.125C143.002 51.9792 146.044 46.5729 149.169 37.9062C148.94 37.9688 148.71 38.0312 148.481 38.0938C148.252 38.1562 148.054 38.2188 147.887 38.2812C147.721 38.3438 147.523 38.375 147.294 38.375C147.085 38.375 146.846 38.3125 146.575 38.1875C146.325 38.0417 146.096 37.875 145.887 37.6875C145.429 37.2708 145.2 36.8646 145.2 36.4688C145.2 36.0729 145.377 35.7083 145.731 35.375C146.106 35.0208 146.565 34.6875 147.106 34.375C148.106 33.7917 149.367 33.25 150.887 32.75L152.575 27.5C154.554 21.3542 156.45 17.0938 158.262 14.7188C156.554 14.5729 155.294 14.5 154.481 14.5C152.023 14.5 150.252 14.8438 149.169 15.5312C148.106 16.2188 147.356 16.9688 146.919 17.7812C146.502 18.5729 146.283 19.125 146.262 19.4375C146.2 20.0208 146.012 20.3958 145.7 20.5625C145.387 20.7083 145.002 20.7812 144.544 20.7812C144.106 20.7812 143.648 20.625 143.169 20.3125C142.69 19.9792 142.294 19.5625 141.981 19.0625C141.315 18.0417 141.054 16.8958 141.2 15.625C141.346 14.3333 141.762 13.2292 142.45 12.3125C143.158 11.375 143.992 10.6146 144.95 10.0312C146.721 8.94792 148.585 8.40625 150.544 8.40625C152.523 8.40625 154.387 8.51042 156.137 8.71875C157.908 8.90625 159.669 9.125 161.419 9.375C166.065 10 169.023 10.3125 170.294 10.3125C171.565 10.3125 172.502 10.2396 173.106 10.0938C173.731 9.94792 174.262 9.72917 174.7 9.4375C175.137 9.14583 175.44 8.95833 175.606 8.875C175.794 8.77083 176.085 8.71875 176.481 8.71875C177.106 8.71875 177.377 9.19792 177.294 10.1562C177.21 11.0938 176.981 11.9062 176.606 12.5938C176.231 13.2604 175.742 13.8125 175.137 14.25C173.908 15.1458 172.346 15.5938 170.45 15.5938C168.554 15.5938 166.252 15.4688 163.544 15.2188C162.856 16.6146 162.2 18.4479 161.575 20.7188L158.7 31.0312C160.658 30.7188 162.148 30.5625 163.169 30.5625C164.21 30.5625 165.065 30.6667 165.731 30.875C166.398 31.0833 166.992 31.375 167.512 31.75C168.721 32.5625 169.315 33.5625 169.294 34.75C169.273 35.9375 168.69 36.5312 167.544 36.5312ZM178.221 54.875C177.346 54.0417 176.659 52.9896 176.159 51.7188C175.659 50.4271 175.398 48.9062 175.378 47.1562C175.357 45.4062 175.565 43.6354 176.003 41.8438C176.461 40.0521 177.096 38.3229 177.909 36.6562C178.742 34.9896 179.732 33.4271 180.878 31.9688C182.044 30.5104 183.325 29.2396 184.721 28.1562C187.763 25.8229 190.919 24.6562 194.19 24.6562C198.482 24.6562 201.388 26.5417 202.909 30.3125C203.992 33.0417 204.055 36.3438 203.096 40.2188C202.221 43.7812 200.617 47.0521 198.284 50.0312C195.971 53.0104 193.242 55.125 190.096 56.375C188.513 57 186.95 57.3125 185.409 57.3125C183.888 57.3125 182.523 57.1146 181.315 56.7188C180.128 56.3229 179.096 55.7083 178.221 54.875ZM184.19 39.7188C183.565 41.2604 183.065 42.8438 182.69 44.4688C182.336 46.0938 182.169 47.6354 182.19 49.0938C182.211 50.5312 182.43 51.6667 182.846 52.5C183.284 53.3125 183.982 53.7188 184.94 53.7188C185.898 53.7188 186.836 53.3958 187.753 52.75C188.69 52.0833 189.596 51.2083 190.471 50.125C191.346 49.0417 192.169 47.7917 192.94 46.375C193.711 44.9583 194.388 43.4792 194.971 41.9375C196.242 38.5833 196.857 35.6042 196.815 33C196.815 30.7083 196.346 29.25 195.409 28.625C195.034 28.375 194.503 28.25 193.815 28.25C193.148 28.25 192.378 28.5625 191.503 29.1875C190.628 29.7917 189.753 30.6146 188.878 31.6562C188.003 32.6979 187.159 33.9167 186.346 35.3125C185.534 36.7083 184.815 38.1771 184.19 39.7188ZM213.399 54.875C212.524 54.0417 211.836 52.9896 211.336 51.7188C210.836 50.4271 210.576 48.9062 210.555 47.1562C210.534 45.4062 210.742 43.6354 211.18 41.8438C211.638 40.0521 212.274 38.3229 213.086 36.6562C213.92 34.9896 214.909 33.4271 216.055 31.9688C217.222 30.5104 218.503 29.2396 219.899 28.1562C222.94 25.8229 226.097 24.6562 229.367 24.6562C233.659 24.6562 236.565 26.5417 238.086 30.3125C239.17 33.0417 239.232 36.3438 238.274 40.2188C237.399 43.7812 235.795 47.0521 233.461 50.0312C231.149 53.0104 228.42 55.125 225.274 56.375C223.69 57 222.128 57.3125 220.586 57.3125C219.065 57.3125 217.701 57.1146 216.492 56.7188C215.305 56.3229 214.274 55.7083 213.399 54.875ZM219.367 39.7188C218.742 41.2604 218.242 42.8438 217.867 44.4688C217.513 46.0938 217.347 47.6354 217.367 49.0938C217.388 50.5312 217.607 51.6667 218.024 52.5C218.461 53.3125 219.159 53.7188 220.117 53.7188C221.076 53.7188 222.013 53.3958 222.93 52.75C223.867 52.0833 224.774 51.2083 225.649 50.125C226.524 49.0417 227.347 47.7917 228.117 46.375C228.888 44.9583 229.565 43.4792 230.149 41.9375C231.42 38.5833 232.034 35.6042 231.992 33C231.992 30.7083 231.524 29.25 230.586 28.625C230.211 28.375 229.68 28.25 228.992 28.25C228.326 28.25 227.555 28.5625 226.68 29.1875C225.805 29.7917 224.93 30.6146 224.055 31.6562C223.18 32.6979 222.336 33.9167 221.524 35.3125C220.711 36.7083 219.992 38.1771 219.367 39.7188ZM276.889 50.6875C277.326 50.6875 277.545 50.9167 277.545 51.375C277.545 53.1667 276.618 54.7083 274.764 56C273.535 56.875 272.368 57.3125 271.264 57.3125C270.18 57.3125 269.316 57.1875 268.67 56.9375C268.024 56.6875 267.441 56.2917 266.92 55.75C265.753 54.5 265.17 52.7812 265.17 50.5938C265.17 50.1562 265.253 49.4583 265.42 48.5C263.732 51.1042 262.285 52.9375 261.076 54C258.639 56.2083 256.253 57.3125 253.92 57.3125C250.232 57.3125 247.816 55.6458 246.67 52.3125C246.253 51.0833 246.045 49.5417 246.045 47.6875C246.045 45.8333 246.326 43.9583 246.889 42.0625C247.451 40.1667 248.212 38.3646 249.17 36.6562C250.149 34.9479 251.274 33.3646 252.545 31.9062C253.837 30.4271 255.191 29.1458 256.607 28.0625C259.649 25.7917 262.399 24.6562 264.857 24.6562C267.316 24.6562 269.285 25.6562 270.764 27.6562C274.389 15.2396 277.118 7.91667 278.951 5.6875C279.722 4.77083 280.535 4.3125 281.389 4.3125C282.805 4.3125 283.878 4.71875 284.607 5.53125C284.837 5.80208 284.951 6.07292 284.951 6.34375C284.951 6.61458 284.785 7.11458 284.451 7.84375C284.118 8.57292 283.628 9.75 282.982 11.375C281.128 16.2708 279.826 19.8542 279.076 22.125C277.16 27.9375 275.868 31.9375 275.201 34.125L273.482 39.9062C272.003 45.0521 271.264 48.3229 271.264 49.7188C271.264 51.1146 271.774 51.8125 272.795 51.8125C273.732 51.8125 274.482 51.6875 275.045 51.4375L276.232 50.875C276.462 50.75 276.68 50.6875 276.889 50.6875ZM255.42 52.625C257.566 52.625 260.024 50.5312 262.795 46.3438C265.691 42.0104 267.712 37.2917 268.857 32.1875C268.774 30.7708 268.18 29.7292 267.076 29.0625C266.701 28.8333 266.128 28.7188 265.357 28.7188C264.607 28.7188 263.722 29 262.701 29.5625C261.701 30.1042 260.722 30.8438 259.764 31.7812C258.826 32.7188 257.941 33.8229 257.107 35.0938C256.295 36.3438 255.587 37.6771 254.982 39.0938C253.67 42.1771 253.014 45.2083 253.014 48.1875C253.014 51.1458 253.816 52.625 255.42 52.625Z" fill="white"/>
</g>
<defs>
<filter id="filter0_d_102_3" x="0.68" y="0.33197" width="287.271" height="83.632" filterUnits="userSpaceOnUse" color-interpolation-filters="sRGB">
<feFlood flood-opacity="0" result="BackgroundImageFix"/>
<feColorMatrix in="SourceAlpha" type="matrix" values="0 0 0 0 0 0 0 0 0 0 0 0 0 0 0 0 0 0 127 0" result="hardAlpha"/>
<feOffset dy="1.5"/>
<feGaussianBlur stdDeviation="1.5"/>
<feComposite in2="hardAlpha" operator="out"/>
<feColorMatrix type="matrix" values="0 0 0 0 0.0851251 0 0 0 0 0.45 0 0 0 0 0.252968 0 0 0 0.85 0"/>
<feBlend mode="normal" in2="BackgroundImageFix" result="effect1_dropShadow_102_3"/>
<feBlend mode="normal" in="SourceGraphic" in2="effect1_dropShadow_102_3" result="shape"/>
</filter>
</defs>
</svg>
