<svg width="96" height="68" viewBox="0 0 96 68" fill="none" xmlns="http://www.w3.org/2000/svg">
<path fill-rule="evenodd" clip-rule="evenodd" d="M44.1979 0.000434937C64.3703 -0.0753557 79.4208 9.76441 86.646 21.457C95.6158 35.973 103.482 54.2296 83.4979 63.6001C62.8987 73.259 34.5478 65.4625 14.7832 55.1534C-0.731251 47.0611 -3.06697 33.7124 3.30218 21.7702C9.54226 10.0699 24.3453 0.075024 44.1979 0.000434937Z" fill="#59B1B1"/>
<path d="M39.6611 55.1494C38.6032 55.1494 37.529 55.0518 36.4385 54.8564C35.3643 54.6774 34.2738 54.4333 33.167 54.124C32.0602 53.8311 30.9535 53.5055 29.8467 53.1475C28.7399 52.7894 27.6494 52.4395 26.5752 52.0977C25.2894 52.8789 23.9466 53.4893 22.5469 53.9287C21.1471 54.3844 19.6742 54.6123 18.1279 54.6123C16.8096 54.6123 15.8005 54.3763 15.1006 53.9043C14.4007 53.4323 14.0508 52.8057 14.0508 52.0244C14.0508 50.999 14.6204 50.2096 15.7598 49.6562C16.8991 49.1029 18.6243 48.8262 20.9355 48.8262C21.9447 48.8262 22.9619 48.8994 23.9873 49.0459C25.0127 49.1924 26.0544 49.3796 27.1123 49.6074C28.1377 48.7122 29.1143 47.7031 30.042 46.5801C30.9697 45.457 31.873 44.2526 32.752 42.9668C32.0846 43.0482 31.4092 43.1133 30.7256 43.1621C30.042 43.1947 29.3503 43.2109 28.6504 43.2109C26.0951 43.2109 23.8164 42.9098 21.8145 42.3076C19.8125 41.6891 18.1198 40.8509 16.7363 39.793C15.3529 38.7188 14.2949 37.4655 13.5625 36.0332C12.8464 34.5846 12.4883 33.0303 12.4883 31.3701C12.4883 29.417 12.8626 27.6836 13.6113 26.1699C14.36 24.6562 15.3854 23.3867 16.6875 22.3613C18.0059 21.3197 19.5521 20.5303 21.3262 19.9932C23.1003 19.4398 25.0046 19.1631 27.0391 19.1631C28.3249 19.1631 29.4967 19.2607 30.5547 19.4561C31.6126 19.6514 32.5241 19.863 33.2891 20.0908C34.0703 20.3187 34.6807 20.5384 35.1201 20.75C35.5596 20.9616 35.8037 21.0755 35.8525 21.0918L35.2178 22.1904C35.2015 22.1904 34.998 22.1009 34.6074 21.9219C34.2168 21.7266 33.6797 21.5231 32.9961 21.3115C32.3125 21.0999 31.4987 20.9046 30.5547 20.7256C29.6107 20.5465 28.5934 20.457 27.5029 20.457C25.5824 20.457 23.8571 20.7419 22.3271 21.3115C20.8135 21.8649 19.5277 22.6299 18.4697 23.6064C17.4281 24.583 16.6224 25.7305 16.0527 27.0488C15.4993 28.3509 15.2227 29.7425 15.2227 31.2236C15.2227 32.8838 15.6051 34.373 16.3701 35.6914C17.1351 36.9935 18.1605 38.1003 19.4463 39.0117C20.7321 39.9069 22.2214 40.5905 23.9141 41.0625C25.623 41.5345 27.4134 41.7705 29.2852 41.7705C30.0501 41.7705 30.7988 41.7461 31.5312 41.6973C32.2799 41.6484 33.0205 41.5671 33.7529 41.4531C34.9085 39.6465 36.0234 37.7747 37.0977 35.8379C38.1882 33.901 39.2705 32.0049 40.3447 30.1494C41.4189 28.2939 42.5013 26.5361 43.5918 24.876C44.6823 23.1995 45.8135 21.7347 46.9854 20.4814C48.1735 19.2282 49.4186 18.2354 50.7207 17.5029C52.0228 16.7542 53.4225 16.3799 54.9199 16.3799C55.5059 16.3799 56.0511 16.4775 56.5557 16.6729C57.0602 16.8519 57.4997 17.1367 57.874 17.5273C58.2484 17.9017 58.5413 18.3818 58.7529 18.9678C58.9645 19.5537 59.0703 20.2373 59.0703 21.0186C59.0703 22.2881 58.8262 23.6309 58.3379 25.0469C57.8496 26.4466 57.1416 27.8545 56.2139 29.2705C55.2861 30.6702 54.1549 32.0537 52.8203 33.4209C51.4857 34.7718 49.972 36.0251 48.2793 37.1807C46.5866 38.3363 44.7311 39.3698 42.7129 40.2812C40.6947 41.1764 38.5462 41.8763 36.2676 42.3809C35.1934 43.862 34.0866 45.2617 32.9473 46.5801C31.8079 47.8822 30.6035 49.0622 29.334 50.1201C30.571 50.4456 31.7835 50.7956 32.9717 51.1699C34.1598 51.528 35.2829 51.8535 36.3408 52.1465C37.415 52.4557 38.4079 52.708 39.3193 52.9033C40.2308 53.1149 41.0365 53.2207 41.7363 53.2207C42.778 53.2207 43.779 53.0417 44.7393 52.6836C45.7158 52.3255 46.6842 51.6908 47.6445 50.7793L48.6455 51.5605C48.6292 51.5768 48.5397 51.6826 48.377 51.8779C48.2142 52.057 47.9701 52.2767 47.6445 52.5371C47.319 52.8138 46.9121 53.0986 46.4238 53.3916C45.9355 53.7008 45.3577 53.9857 44.6904 54.2461C44.0394 54.5065 43.2907 54.7181 42.4443 54.8809C41.6143 55.0599 40.6865 55.1494 39.6611 55.1494ZM55.0176 17.7227C54.1061 17.7227 53.2028 18.0482 52.3076 18.6992C51.4124 19.3503 50.5091 20.2373 49.5977 21.3604C48.6862 22.4671 47.7585 23.7773 46.8145 25.291C45.8867 26.7884 44.9264 28.3916 43.9336 30.1006C42.9408 31.7933 41.9072 33.543 40.833 35.3496C39.7588 37.1562 38.6357 38.9303 37.4639 40.6719C39.417 40.1348 41.2725 39.4349 43.0303 38.5723C44.8044 37.7096 46.4401 36.7412 47.9375 35.667C49.4512 34.5928 50.8102 33.4453 52.0146 32.2246C53.2354 30.9876 54.2689 29.7262 55.1152 28.4404C55.9779 27.1546 56.637 25.8851 57.0928 24.6318C57.5485 23.3623 57.7764 22.1497 57.7764 20.9941C57.7764 20.3919 57.7031 19.8874 57.5566 19.4805C57.4102 19.0573 57.2067 18.7155 56.9463 18.4551C56.7021 18.1947 56.4092 18.0075 56.0674 17.8936C55.7419 17.7796 55.3919 17.7227 55.0176 17.7227ZM17.9814 53.3428C19.1859 53.3428 20.3252 53.1719 21.3994 52.8301C22.4736 52.5046 23.5153 52.0488 24.5244 51.4629C23.4502 51.1536 22.4085 50.9014 21.3994 50.7061C20.4066 50.5107 19.4463 50.4131 18.5186 50.4131C17.4118 50.4131 16.598 50.5758 16.0771 50.9014C15.5726 51.2269 15.3203 51.6012 15.3203 52.0244C15.3203 52.1546 15.3529 52.293 15.418 52.4395C15.4993 52.6022 15.6377 52.7487 15.833 52.8789C16.0283 53.0091 16.2969 53.1149 16.6387 53.1963C16.9805 53.2939 17.4281 53.3428 17.9814 53.3428Z" fill="#102F26"/>
<path d="M58.8492 51.35C58.4159 51.35 57.9492 51.0333 57.4492 50.4C56.9492 49.7667 56.6992 49.25 56.6992 48.85C56.6992 48.45 56.8659 47.6667 57.1992 46.5C58.8659 40.5 59.9992 36.2167 60.5992 33.65C59.1659 33.9833 58.1826 34.15 57.6492 34.15C57.1159 34.15 56.5826 33.9167 56.0492 33.45C55.5159 32.9833 55.2492 32.4667 55.2492 31.9C55.2492 31.3333 55.9992 30.8333 57.4992 30.4C59.4326 29.9333 60.7659 29.6333 61.4992 29.5C61.8326 27.9 62.0826 26.6667 62.2492 25.8C63.0492 21.2 64.1326 17.8833 65.4992 15.85C66.8659 13.8167 68.7159 12.8 71.0492 12.8C72.7159 12.8 74.0826 13.4667 75.1492 14.8C76.2159 16.1 76.7492 17.65 76.7492 19.45C76.7492 21.2167 76.2826 22.1 75.3492 22.1C74.5492 22.1 73.8992 21.2 73.3992 19.4C73.2326 18.7333 72.9492 18.1167 72.5492 17.55C72.1492 16.9833 71.6659 16.7 71.0992 16.7C70.5326 16.7 70.0159 16.9667 69.5492 17.5C69.0826 18 68.6659 18.7333 68.2992 19.7C67.3326 22.4 66.6659 24.8667 66.2992 27.1L65.8992 28.85C67.1326 28.6833 68.3492 28.6 69.5492 28.6C70.7826 28.6 71.6659 28.7333 72.1992 29C72.7659 29.2667 73.0492 29.6 73.0492 30C73.0492 30.6333 72.4992 31.1167 71.3992 31.45C70.2992 31.7833 68.1492 32.2167 64.9492 32.75C62.5826 42.35 60.9659 48.0667 60.0992 49.9C59.6326 50.8667 59.2159 51.35 58.8492 51.35Z" fill="white"/>
</svg>
